<?xml version="1.0" encoding="UTF-8"?>
<svg id="_レイヤー_1" data-name="レイヤー 1" xmlns="http://www.w3.org/2000/svg" viewBox="0 0 340 70">
  <defs>
    <style>
      .cls-1 {
        fill: #3e3a39;
      }

      .cls-2 {
        fill: #85bc42;
      }

      .cls-3 {
        fill: #f7b52c;
      }

      .cls-4 {
        fill: #19abc0;
      }
    </style>
  </defs>
  <g>
    <path class="cls-3" d="M33.95,13.47c-3.45,2.51-9.65,22.14-5.58,42.93,0,.03-.04,.04-.06,.02-5.92-7.13-18.91-33.76,5.6-42.99,.04-.01,.08,.03,.05,.05Z"/>
    <path class="cls-2" d="M16.35,21.92c-5.43,3.27-14.83,16.31-1.9,36.56,5.45,1.68,9.05,3.81,12.87,6.76-3.65-5.82-15.68-29.4-10.98-43.32Z"/>
    <path class="cls-4" d="M43.62,4.56c-1.69,2.39-17.21,32.02-13.16,60.88,7.6-5.27,22.78-9.92,31.85-11.04-6.63-9.46-20.24-31.22-18.69-49.84Z"/>
  </g>
  <g>
    <path class="cls-1" d="M85.53,53.04c.98,0,1.82-.08,2.54-.23,.72-.15,1.33-.34,1.85-.57,.51-.23,.95-.48,1.3-.76,.35-.27,.67-.53,.96-.76s.55-.42,.8-.57c.25-.15,.51-.23,.8-.23s.52,.05,.7,.15,.32,.21,.41,.33l3.03,3.64c-1.68,2-3.68,3.52-6,4.56s-4.94,1.56-7.88,1.56c-2.45,0-4.61-.43-6.5-1.29s-3.48-2.04-4.77-3.55c-1.29-1.51-2.27-3.29-2.94-5.36-.66-2.06-1-4.29-1-6.69,0-2.22,.25-4.32,.74-6.3,.5-1.99,1.2-3.82,2.1-5.5,.9-1.68,1.99-3.2,3.26-4.55,1.27-1.35,2.67-2.49,4.21-3.43,1.54-.94,3.2-1.66,4.97-2.17,1.77-.51,3.62-.76,5.56-.76,1.45,0,2.78,.14,3.98,.41s2.28,.66,3.24,1.14,1.83,1.07,2.59,1.74,1.43,1.42,1.99,2.23l-3.03,3.51c-.21,.25-.46,.47-.74,.67-.28,.2-.66,.29-1.12,.29-.3,0-.58-.07-.82-.21-.25-.14-.5-.31-.76-.52-.26-.2-.54-.43-.86-.68-.32-.25-.7-.47-1.14-.68-.44-.2-.97-.38-1.58-.52-.61-.14-1.33-.21-2.17-.21-1.63,0-3.15,.35-4.56,1.04-1.41,.69-2.63,1.68-3.67,2.96-1.04,1.29-1.85,2.85-2.43,4.68-.58,1.83-.88,3.89-.88,6.16,0,1.65,.2,3.12,.6,4.41,.4,1.29,.94,2.39,1.64,3.28,.69,.9,1.52,1.58,2.47,2.05,.96,.47,1.99,.7,3.11,.7Z"/>
    <path class="cls-1" d="M99.86,59.75l3.35-27.58h4.25c.85,0,1.52,.2,1.99,.6,.48,.4,.72,1.05,.72,1.95v3.14c1.06-1.88,2.22-3.32,3.46-4.33,1.24-1.01,2.53-1.52,3.86-1.52,.74,0,1.48,.17,2.21,.5l-1.49,7.63c-.9-.39-1.76-.59-2.58-.59-1.37,0-2.58,.62-3.63,1.85-1.05,1.23-1.91,3.21-2.57,5.94l-1.49,12.39h-8.08Z"/>
    <path class="cls-1" d="M144.16,38.95c0,1.26-.25,2.41-.74,3.46-.5,1.05-1.36,1.97-2.59,2.78-1.23,.81-2.89,1.49-4.97,2.06-2.08,.57-4.7,1.01-7.86,1.33,.04,1.88,.45,3.25,1.24,4.12,.79,.87,1.95,1.3,3.5,1.3,.73,0,1.36-.06,1.89-.19,.53-.12,1-.28,1.4-.48,.4-.19,.76-.4,1.08-.61,.32-.21,.62-.42,.92-.61,.29-.19,.6-.35,.92-.48,.32-.12,.68-.19,1.09-.19,.27,0,.52,.07,.77,.2,.25,.13,.47,.31,.67,.52l2.13,2.47c-.98,.96-1.93,1.79-2.86,2.49s-1.89,1.28-2.87,1.73c-.98,.45-2.03,.78-3.14,1s-2.32,.32-3.63,.32c-1.63,0-3.13-.28-4.49-.84-1.37-.56-2.54-1.35-3.52-2.37-.98-1.02-1.75-2.25-2.29-3.68-.54-1.44-.81-3.03-.81-4.79,0-1.47,.16-2.91,.49-4.31s.8-2.72,1.41-3.95c.61-1.23,1.36-2.37,2.25-3.4,.89-1.04,1.88-1.93,2.99-2.67,1.11-.74,2.32-1.33,3.64-1.74,1.32-.42,2.73-.62,4.21-.62s2.78,.21,3.92,.64c1.14,.43,2.1,.98,2.89,1.66,.78,.68,1.37,1.45,1.78,2.3,.41,.85,.61,1.7,.61,2.55Zm-9.68-1.6c-1.37,0-2.56,.55-3.59,1.64-1.03,1.09-1.8,2.58-2.31,4.48,1.72-.27,3.11-.54,4.17-.84,1.06-.29,1.89-.61,2.47-.96s.98-.72,1.18-1.12c.2-.4,.31-.83,.31-1.29s-.18-.9-.53-1.3c-.35-.41-.92-.61-1.7-.61Z"/>
    <path class="cls-1" d="M146.56,32.17h6.33c.53,0,.98,.13,1.36,.4,.37,.27,.58,.61,.61,1.04l.8,12.37c0,.07,0,.14,.01,.2,0,.06,.01,.13,.01,.2,.05,.85,.1,1.68,.13,2.47,.04,.8,.06,1.6,.08,2.39,.32-.85,.66-1.71,1.02-2.58,.36-.87,.72-1.76,1.08-2.69l4.63-12.39c.14-.41,.42-.75,.84-1.02,.42-.27,.86-.41,1.34-.41h3.56c.57,0,1.02,.14,1.37,.41,.35,.27,.54,.62,.6,1.02l1.6,12.39c.12,.9,.24,1.79,.36,2.66s.22,1.73,.31,2.58c.25-.85,.51-1.7,.8-2.55s.58-1.75,.88-2.69l3.88-12.37c.14-.41,.41-.75,.81-1.02s.84-.41,1.32-.41h6.06l-11.22,27.58h-6.44c-.32,0-.58-.11-.78-.32-.2-.21-.35-.57-.44-1.06l-2.02-13.75c-.05-.39-.1-.78-.15-1.16-.04-.38-.08-.77-.12-1.16-.14,.41-.29,.81-.45,1.2s-.31,.78-.45,1.17l-5.27,13.69c-.37,.92-.96,1.38-1.75,1.38h-6.17l-4.52-27.58Z"/>
    <path class="cls-1" d="M188.17,21h6.81c.74,0,1.34,.17,1.79,.52s.72,.8,.81,1.37l2.71,20.87c.07,.5,.12,1.01,.16,1.53,.04,.52,.07,1,.11,1.42,.04,.51,.05,1.01,.05,1.49,.27-.83,.55-1.62,.84-2.35,.29-.74,.56-1.43,.81-2.09l7.92-20.87c.19-.48,.57-.91,1.12-1.3,.55-.39,1.19-.58,1.91-.58h2.02c.74,0,1.35,.17,1.82,.52s.75,.8,.84,1.37l2.98,20.87c.09,.62,.18,1.3,.28,2.03,.1,.74,.18,1.5,.25,2.3,.23-.8,.46-1.56,.69-2.29,.23-.73,.46-1.41,.69-2.05l7.66-20.87c.18-.5,.55-.94,1.13-1.32,.58-.38,1.23-.57,1.95-.57h6.86l-15.8,38.74h-7.87l-3.56-24.46c-.05-.39-.12-.82-.19-1.29-.07-.47-.13-.96-.19-1.48-.2,.51-.39,1.01-.57,1.48-.19,.47-.35,.9-.49,1.29l-9.47,24.46h-7.82l-6.28-38.74Z"/>
    <path class="cls-1" d="M247.87,60.17c-1.54,0-2.98-.26-4.32-.77-1.34-.51-2.5-1.26-3.48-2.25s-1.76-2.2-2.31-3.64c-.56-1.44-.84-3.11-.84-4.99,0-2.45,.4-4.69,1.21-6.74,.81-2.05,1.89-3.82,3.26-5.31,1.36-1.49,2.95-2.65,4.75-3.48,1.8-.83,3.69-1.25,5.68-1.25,1.54,0,2.98,.26,4.31,.77,1.33,.51,2.49,1.26,3.47,2.25s1.76,2.2,2.33,3.64c.57,1.45,.85,3.11,.85,4.99,0,2.41-.4,4.64-1.21,6.69-.81,2.05-1.89,3.82-3.26,5.32-1.37,1.5-2.95,2.67-4.75,3.51-1.8,.84-3.69,1.26-5.68,1.26Zm.74-6.12c.92,0,1.75-.28,2.47-.84,.73-.56,1.34-1.32,1.85-2.29,.5-.97,.9-2.09,1.17-3.38,.27-1.29,.41-2.65,.41-4.11,0-2-.27-3.43-.81-4.29-.54-.86-1.42-1.29-2.65-1.29-.92,0-1.75,.28-2.47,.84-.73,.56-1.34,1.32-1.85,2.27-.5,.96-.9,2.08-1.17,3.38-.27,1.29-.41,2.67-.41,4.12,0,1.97,.27,3.39,.81,4.27,.54,.88,1.42,1.32,2.65,1.32Z"/>
    <path class="cls-1" d="M263.19,59.75l3.35-27.58h4.25c.85,0,1.52,.2,1.99,.6,.48,.4,.72,1.05,.72,1.95v3.14c1.06-1.88,2.22-3.32,3.46-4.33,1.24-1.01,2.53-1.52,3.86-1.52,.74,0,1.48,.17,2.21,.5l-1.49,7.63c-.9-.39-1.76-.59-2.58-.59-1.37,0-2.58,.62-3.63,1.85-1.05,1.23-1.91,3.21-2.57,5.94l-1.49,12.39h-8.08Z"/>
    <path class="cls-1" d="M296.48,19.94l-2.74,22.31h.56c.46,0,.83-.07,1.12-.21,.28-.14,.57-.4,.85-.77l5.69-7.77c.34-.46,.71-.8,1.12-1.01,.41-.21,.9-.32,1.49-.32h7.39l-7.71,9.81c-.35,.46-.74,.87-1.17,1.22-.43,.35-.87,.66-1.33,.93,.37,.3,.7,.65,.97,1.05s.52,.86,.73,1.37l5.53,13.19h-7.18c-.58,0-1.07-.1-1.45-.31-.38-.2-.68-.56-.89-1.08l-3.83-9.76c-.2-.44-.4-.73-.62-.86-.22-.13-.58-.2-1.08-.2h-.85l-1.49,12.21h-8.14l4.89-39.81h8.14Z"/>
    <path class="cls-1" d="M330.52,37.97c-.25,.32-.48,.55-.69,.69-.21,.14-.5,.21-.85,.21s-.7-.08-1.05-.24c-.35-.16-.72-.34-1.12-.54-.4-.2-.85-.39-1.36-.55-.5-.16-1.09-.24-1.74-.24-1.22,0-2.1,.24-2.62,.71-.52,.47-.78,1.08-.78,1.82,0,.48,.15,.89,.44,1.22,.29,.34,.68,.64,1.16,.9s1.02,.51,1.64,.73c.61,.22,1.24,.47,1.88,.74,.64,.28,1.26,.59,1.87,.94,.61,.35,1.16,.79,1.64,1.3,.48,.51,.86,1.13,1.16,1.83,.29,.71,.44,1.55,.44,2.53,0,1.38-.27,2.69-.82,3.92-.55,1.23-1.34,2.3-2.37,3.22-1.03,.91-2.27,1.64-3.74,2.18-1.46,.54-3.11,.81-4.93,.81-.87,0-1.73-.09-2.58-.27-.85-.18-1.65-.42-2.41-.72-.75-.3-1.44-.66-2.06-1.08-.62-.42-1.13-.86-1.52-1.34l2.02-3.03c.25-.35,.54-.63,.86-.84,.33-.2,.73-.31,1.21-.31,.44,0,.82,.11,1.14,.32,.32,.21,.67,.44,1.04,.69,.37,.25,.82,.48,1.33,.69,.51,.21,1.19,.32,2.02,.32,1.17,0,2.04-.26,2.61-.78s.85-1.14,.85-1.85c0-.55-.15-1-.44-1.36-.29-.35-.68-.66-1.16-.92-.48-.26-1.02-.49-1.62-.69-.6-.2-1.22-.43-1.86-.68-.64-.25-1.26-.54-1.86-.86-.6-.33-1.14-.74-1.62-1.24-.48-.5-.86-1.11-1.16-1.83-.29-.73-.44-1.6-.44-2.63,0-1.28,.23-2.52,.7-3.72,.47-1.21,1.17-2.27,2.1-3.2s2.09-1.68,3.47-2.25,3-.85,4.84-.85,3.49,.32,4.93,.96c1.44,.64,2.64,1.42,3.58,2.34l-2.13,2.93Z"/>
  </g>
</svg>